# xmcd CD database file
#
# Track frame offsets:
#	150
#	14132
#	33097
#	47142
#
# Disc length: 878 seconds
#
# Revision: 3
# Processed by: cddbd v1.5.2PL0 Copyright (c) Steve Scherf et al.
# Submitted via: CDex 1.70beta2
#
DISCID=2c036c04
DTITLE=Little Baby - 短いKissの長いストーリー
DYEAR=1999
DGENRE=JPop
TTITLE0=短いKissの長いストーリー
TTITLE1=Believe
TTITLE2=短いKissの長いストーリー (Instrumental)
TTITLE3=Believe (Instrumental)
EXTD=YEAR: 1999
EXTT0=
EXTT1=
EXTT2=
EXTT3=
PLAYORDER=
